<svg viewBox="0 0 1000 1000" xmlns="http://www.w3.org/2000/svg"><path d="M444.87 353l-1.02 343.34-90.17-72.48c-49.68-39.81-91.19-72.82-92.56-72.82-1.36 0-17.35 18.72-35.73 41.17l-33.01 41.18 8.17 6.81c4.76 4.08 73.5 59.21 152.78 123.18l144.62 116.03-243.98 1.02-243.97.68V990h980V881.12l-244.66-.68-245-1.02L598 801.16c53.42-43.22 122.16-98.34 152.79-122.84l55.13-44.92-32.67-41.18c-18.03-22.8-34.03-41.17-35.39-41.17-1.02 0-42.54 32.33-91.88 71.8l-89.83 71.8-1.02-342.32-.68-342.32H445.56L444.87 353z" fill="#fff"/></svg>