<svg xmlns="http://www.w3.org/2000/svg" width="220.523" height="220.523"><path fill="#FFF" d="M110.261 220.379c60.817 0 110.118-49.301 110.118-110.117C220.379 49.447 171.078.145 110.261.145 49.445.145.145 49.446.145 110.262s49.3 110.117 110.116 110.117"/><circle fill="none" stroke="#000" stroke-width=".289" stroke-miterlimit="10" cx="110.261" cy="110.262" r="110.117"/><path d="M110.261 211.597c55.965 0 101.334-45.369 101.334-101.335 0-55.965-45.369-101.334-101.334-101.334S8.927 54.297 8.927 110.262c0 55.966 45.369 101.335 101.334 101.335"/><path fill="#FFF" d="M110.261 82.519l-22.999 42.079h45.998zm-2.771-5.072L96.469 57.283l-50.585 92.55h22.042l11.022-20.164zm53.356 47.15l-50.584-92.548-11.021 20.163 39.563 72.385zm2.771 5.072H84.491L73.47 149.833h101.169zM45.885 154.893h2.24v10.166h-2.24zm7.138 10.165v-10.166h1.53l6.773 5.993c.232.198.434.387.611.563.176.177.337.357.482.543-.036-.57-.06-.975-.073-1.212a13.16 13.16 0 01-.018-.548v-5.339h2.013v10.166h-1.53l-7.066-6.279c-.169-.16-.318-.305-.445-.435a4.506 4.506 0 01-.356-.394c.031.314.053.61.069.89.014.279.022.521.022.727v5.491h-2.012zm16.207 0v-10.166h1.529l6.775 5.993c.231.198.433.387.61.563.176.177.337.357.483.543-.037-.57-.061-.975-.073-1.212a11.882 11.882 0 01-.019-.548v-5.339h2.012v10.166h-1.529l-7.065-6.279a15.08 15.08 0 01-.446-.435 4.493 4.493 0 01-.355-.394c.03.314.052.61.068.89.014.279.023.521.023.727v5.491H69.23zm16.024-7.762c0-.922.164-1.554.492-1.895.328-.339.96-.51 1.894-.51h7.084c.934 0 1.566.171 1.894.51.327.341.491.973.491 1.895v5.358c0 .929-.164 1.563-.491 1.899-.328.336-.96.504-1.894.504H87.64c-.934 0-1.566-.168-1.894-.504-.328-.337-.492-.971-.492-1.899v-5.358zm2.242 5.849h7.384v-6.434h-7.384v6.434zm18.327 1.913l-5.563-10.166h2.558l3.897 7.348 3.715-7.348h2.23l-5.29 10.166zm6.941 0l5.444-10.166h2.159l5.517 10.166h-2.513l-1.157-2.221h-6.1l-1.12 2.221h-2.23zM117.07 161h4.216l-2.076-4.136-2.14 4.136zm15.868-4.29v8.349h-2.241v-8.349h-4.416v-1.818h11.09v1.818zm8.292-1.817h2.24v10.166h-2.24zm15.234 1.817h-6.037v6.435h6.037v-2.185l2.24.491v1.203c0 .929-.167 1.563-.497 1.899-.331.337-.96.505-1.891.505h-5.743c-.937 0-1.567-.168-1.896-.505-.326-.337-.49-.971-.49-1.899v-5.357c0-.924.164-1.555.49-1.895.328-.34.959-.511 1.896-.511h5.743c.931 0 1.56.171 1.891.511.33.34.497.971.497 1.895v.962l-2.24.375v-1.924zm5.054 8.348l5.445-10.166h2.158l5.518 10.166h-2.514l-1.156-2.221h-6.101l-1.12 2.221h-2.23zm4.306-4.058h4.216l-2.075-4.136-2.141 4.136z"/></svg>