<svg enable-background="new 0 0 1000 1000" version="1.1" viewBox="0 0 1e3 1e3" xml:space="preserve" xmlns="http://www.w3.org/2000/svg">

<g fill="#fff"><g transform="translate(0 511) scale(.1 -.1)" fill="#fff"><path d="m4448.7 1580-10.2-3433.4-901.7 724.8c-496.8 398.1-911.9 728.2-925.6 728.2-13.6 0-173.5-187.2-357.3-411.7l-330.1-411.8 81.7-68.1c47.6-40.8 735-592.1 1527.8-1231.8l1446.2-1160.3-2439.8-10.2-2439.7-6.8v-1088.9h9800v1088.8l-2446.6 6.8-2450 10.2 976.6 782.6c534.2 432.2 1221.6 983.4 1527.9 1228.4l551.3 449.2-326.7 411.8c-180.3 228-340.3 411.7-353.9 411.7-10.2 0-425.4-323.3-918.8-718l-898.3-718-10.2 3423.2-6.8 3423.2h-1088.9l-6.9-3429.9z" fill="#fff"/></g></g>
</svg>
