<?xml version="1.0" encoding="utf-8"?>
<!-- Generator: Adobe Illustrator 15.0.0, SVG Export Plug-In . SVG Version: 6.00 Build 0)  -->
<!DOCTYPE svg PUBLIC "-//W3C//DTD SVG 1.1//EN" "http://www.w3.org/Graphics/SVG/1.1/DTD/svg11.dtd">
<svg version="1.1" id="Layer_1" xmlns="http://www.w3.org/2000/svg" xmlns:xlink="http://www.w3.org/1999/xlink" x="0px" y="0px"
	 width="220.523px" height="220.523px" viewBox="0 0 220.523 220.523" enable-background="new 0 0 220.523 220.523"
	 xml:space="preserve">
<g>
	<path fill="#FFFFFF" d="M110.261,220.379c60.817,0,110.118-49.301,110.118-110.117c0-60.815-49.301-110.117-110.118-110.117
		C49.445,0.145,0.145,49.446,0.145,110.262C0.145,171.078,49.445,220.379,110.261,220.379"/>
	<circle fill="none" stroke="#000000" stroke-width="0.289" stroke-miterlimit="10" cx="110.261" cy="110.262" r="110.117"/>
	<path d="M110.261,211.597c55.965,0,101.334-45.369,101.334-101.335c0-55.965-45.369-101.334-101.334-101.334
		C54.296,8.928,8.927,54.297,8.927,110.262C8.927,166.228,54.296,211.597,110.261,211.597"/>
	<polygon fill="#FFFFFF" points="110.261,82.519 87.262,124.598 133.26,124.598 	"/>
	<polygon fill="#FFFFFF" points="107.49,77.447 96.469,57.283 45.884,149.833 67.926,149.833 78.948,129.669 	"/>
	<polygon fill="#FFFFFF" points="160.846,124.597 110.262,32.049 99.241,52.212 138.804,124.597 	"/>
	<polygon fill="#FFFFFF" points="163.617,129.669 141.574,129.669 84.491,129.669 73.47,149.833 174.639,149.833 	"/>
	<rect x="45.885" y="154.893" fill="#FFFFFF" width="2.24" height="10.166"/>
	<path fill="#FFFFFF" d="M53.023,165.058v-10.166h1.53l6.773,5.993c0.232,0.198,0.434,0.387,0.611,0.563
		c0.176,0.177,0.337,0.357,0.482,0.543c-0.036-0.57-0.06-0.975-0.073-1.212c-0.011-0.237-0.018-0.419-0.018-0.548v-5.339h2.013
		v10.166h-1.53l-7.066-6.279c-0.169-0.16-0.318-0.305-0.445-0.435c-0.129-0.127-0.247-0.258-0.356-0.394
		c0.031,0.314,0.053,0.61,0.069,0.89c0.014,0.279,0.022,0.521,0.022,0.727v5.491H53.023z"/>
	<path fill="#FFFFFF" d="M69.23,165.058v-10.166h1.529l6.775,5.993c0.231,0.198,0.433,0.387,0.61,0.563
		c0.176,0.177,0.337,0.357,0.483,0.543c-0.037-0.57-0.061-0.975-0.073-1.212c-0.012-0.237-0.019-0.419-0.019-0.548v-5.339h2.012
		v10.166h-1.529l-7.065-6.279c-0.17-0.16-0.319-0.305-0.446-0.435c-0.128-0.127-0.247-0.258-0.355-0.394
		c0.03,0.314,0.052,0.61,0.068,0.89c0.014,0.279,0.023,0.521,0.023,0.727v5.491H69.23z"/>
	<path fill="#FFFFFF" d="M85.254,157.296c0-0.922,0.164-1.554,0.492-1.895c0.328-0.339,0.96-0.51,1.894-0.51h7.084
		c0.934,0,1.566,0.171,1.894,0.51c0.327,0.341,0.491,0.973,0.491,1.895v5.358c0,0.929-0.164,1.563-0.491,1.899
		c-0.328,0.336-0.96,0.504-1.894,0.504h-7.084c-0.934,0-1.566-0.168-1.894-0.504c-0.328-0.337-0.492-0.971-0.492-1.899V157.296z
		 M87.496,163.145h7.384v-6.434h-7.384V163.145z"/>
	<polygon fill="#FFFFFF" points="105.823,165.058 100.26,154.892 102.818,154.892 106.715,162.24 110.43,154.892 112.66,154.892 
		107.37,165.058 	"/>
	<path fill="#FFFFFF" d="M112.764,165.058l5.444-10.166h2.159l5.517,10.166h-2.513l-1.157-2.221h-6.1l-1.12,2.221H112.764z
		 M117.07,161h4.216l-2.076-4.136L117.07,161z"/>
	<polygon fill="#FFFFFF" points="132.938,156.71 132.938,165.059 130.697,165.059 130.697,156.71 126.281,156.71 126.281,154.892 
		137.371,154.892 137.371,156.71 	"/>
	<rect x="141.23" y="154.893" fill="#FFFFFF" width="2.24" height="10.166"/>
	<path fill="#FFFFFF" d="M156.464,156.71h-6.037v6.435h6.037v-2.185l2.24,0.491v1.203c0,0.929-0.167,1.563-0.497,1.899
		c-0.331,0.337-0.96,0.505-1.891,0.505h-5.743c-0.937,0-1.567-0.168-1.896-0.505c-0.326-0.337-0.49-0.971-0.49-1.899v-5.357
		c0-0.924,0.164-1.555,0.49-1.895c0.328-0.34,0.959-0.511,1.896-0.511h5.743c0.931,0,1.56,0.171,1.891,0.511
		c0.33,0.34,0.497,0.971,0.497,1.895v0.962l-2.24,0.375V156.71z"/>
	<path fill="#FFFFFF" d="M161.518,165.058l5.445-10.166h2.158l5.518,10.166h-2.514l-1.156-2.221h-6.101l-1.12,2.221H161.518z
		 M165.824,161h4.216l-2.075-4.136L165.824,161z"/>
</g>
</svg>
