<svg width="256" height="256" version="1.1" viewBox="0 0 256 256" xml:space="preserve" xmlns="http://www.w3.org/2000/svg">
<desc>Created with Fabric.js 1.7.22</desc>

<g transform="translate(128 128) scale(.72)" fill="#fff">
	<g transform="translate(-175.05 -175.05) scale(3.89)" fill="#fff" stroke-linecap="round">
	<path d="m1 90c-0.256 0-0.512-0.098-0.707-0.293-0.391-0.391-0.391-1.023 0-1.414l88-88c0.391-0.391 1.023-0.391 1.414 0s0.391 1.023 0 1.414l-88 88c-0.195 0.195-0.451 0.293-0.707 0.293z"/>
	<path d="m89 90c-0.256 0-0.512-0.098-0.707-0.293l-88-88c-0.391-0.391-0.391-1.023 0-1.414s1.023-0.391 1.414 0l88 88c0.391 0.391 0.391 1.023 0 1.414-0.195 0.195-0.451 0.293-0.707 0.293z"/>
</g>
</g>
</svg>
